<svg width="24" height="24" viewBox="0 0 24 24" xmlns="http://www.w3.org/2000/svg">
<path fill-rule="evenodd" clip-rule="evenodd" d="M23.555 10.4202C23.2633 9.94696 22.8459 9.56408 22.3493 9.31427H22.3393L8.33927 2.31427C7.78676 2.03928 7.16289 1.94138 6.55271 2.03392C5.94252 2.12646 5.37573 2.40494 4.9296 2.83138C4.48347 3.25783 4.17972 3.81149 4.05976 4.41688C3.9398 5.02227 4.00947 5.64992 4.25927 6.21427L6.65927 11.5843C6.71373 11.7141 6.74177 11.8535 6.74177 11.9943C6.74177 12.1351 6.71373 12.2744 6.65927 12.4043L4.25927 17.7743C4.05597 18.231 3.97003 18.7313 4.00925 19.2296C4.04847 19.728 4.21161 20.2087 4.48385 20.628C4.75609 21.0473 5.1288 21.3919 5.56809 21.6305C6.00739 21.8691 6.49935 21.9941 6.99927 21.9943C7.4675 21.9896 7.92876 21.8803 8.34927 21.6743L22.3493 14.6743C22.8459 14.4245 23.2633 14.0416 23.555 13.5683C23.8466 13.0951 24.0011 12.5502 24.0011 11.9943C24.0011 11.4384 23.8466 10.8934 23.555 10.4202ZM21.4493 12.8843C21.6131 12.8004 21.7505 12.6729 21.8465 12.5158C21.9425 12.3588 21.9933 12.1783 21.9933 11.9943C21.9933 11.8102 21.9425 11.6297 21.8465 11.4727C21.7505 11.3157 21.6131 11.1882 21.4493 11.1043L7.44927 4.10427C7.26543 4.016 7.059 3.98604 6.85766 4.01842C6.65631 4.0508 6.46968 4.14396 6.32278 4.28542C6.17589 4.42687 6.07575 4.60986 6.0358 4.80984C5.99585 5.00982 6.018 5.21723 6.09927 5.40427L8.48927 10.7743C8.52021 10.846 8.54692 10.9194 8.56927 10.9943H15.4593C15.7245 10.9943 15.9788 11.0996 16.1664 11.2872C16.3539 11.4747 16.4593 11.7291 16.4593 11.9943C16.4593 12.2595 16.3539 12.5138 16.1664 12.7014C15.9788 12.8889 15.7245 12.9943 15.4593 12.9943H8.56927C8.54692 13.0691 8.52021 13.1426 8.48927 13.2143L6.09927 18.5843C6.018 18.7713 5.99585 18.9787 6.0358 19.1787C6.07575 19.3787 6.17589 19.5617 6.32278 19.7031C6.46968 19.8446 6.65631 19.9377 6.85766 19.9701C7.059 20.0025 7.26543 19.9725 7.44927 19.8843L21.4493 12.8843Z"/>
</svg>
